<svg data-v-fde0c5aa="" xmlns="http://www.w3.org/2000/svg" viewBox="0 0 300 300" class="iconLeftSlogan"><!----><defs data-v-fde0c5aa=""><!----></defs><rect data-v-fde0c5aa="" fill="transparent" x="0" y="0" width="300px" height="300px" class="logo-background-square"></rect><defs data-v-fde0c5aa=""><!----></defs><g data-v-fde0c5aa="" id="91e03399-8c73-4bb9-8fd9-f9eeed9f5f9c" fill="#000000" transform="matrix(0.9103375216496885,0,0,0.9103375216496885,84.88746711938268,132.52157712074134)"><path d="M7.42 3.79L7.42 3.49L9.83 3.49L9.83 3.79Q9.06 4.41 7.83 7.74L7.83 7.74Q6.16 12.56 5.94 13.27L5.94 13.27L3.92 13.48Q3.91 12.75 1.41 6.48L1.41 6.48Q0.50 4.19-0.07 3.79L-0.07 3.79L-0.07 3.49L2.79 3.49L2.79 3.79Q2.79 4.52 3.39 6.33L3.39 6.33L5.22 11.56L6.87 6.50Q7.36 5.03 7.42 3.79L7.42 3.79ZM13.08 13.55L13.08 13.55Q11.86 13.55 10.89 12.64Q9.93 11.73 9.93 10.18Q9.93 8.64 10.95 7.47Q11.97 6.30 13.59 6.30L13.59 6.30Q14.97 6.30 15.64 7.18Q16.31 8.06 16.31 9.62L16.31 9.62L15.78 10.16L11.94 10.16Q11.96 11.17 12.48 11.72Q13.01 12.26 13.74 12.26Q14.48 12.26 15.96 11.49L15.96 11.49L16.31 12.03Q16.04 12.28 15.71 12.54Q15.37 12.81 14.58 13.18Q13.79 13.55 13.08 13.55ZM13.27 7.20L13.27 7.20Q12.75 7.20 12.45 7.41L12.45 7.41Q12.22 7.76 12.10 8.33Q11.97 8.90 11.96 9.35L11.96 9.35L14.41 9.21Q14.41 7.20 13.27 7.20ZM20.55 12.98L20.55 13.29L18.10 13.29L18.10 12.98Q18.34 12.22 18.34 11.10L18.34 11.10L18.34 9.02Q18.34 8.40 18.11 7.82Q17.88 7.24 17.56 7.06L17.56 7.06L17.56 6.75L19.53 6.29L19.67 6.48Q19.75 6.61 19.92 7.06L19.92 7.06Q20.83 6.30 21.83 6.30L21.83 6.30Q22.32 6.30 22.74 6.50L22.74 6.50Q22.74 6.57 22.74 6.62L22.74 6.62Q22.74 7.50 22.39 8.39L22.39 8.39Q21.64 7.87 20.79 7.87L20.79 7.87Q20.52 7.87 20.15 7.95L20.15 7.95L20.15 10.71Q20.15 12.05 20.55 12.98L20.55 12.98ZM25.52 3.16L25.68 3.25Q25.80 3.36 25.85 3.72Q25.90 4.09 25.90 4.28Q25.90 4.48 25.87 4.63L25.87 4.63L25.75 4.75Q25.13 4.93 24.14 5.00L24.14 5.00L23.98 4.93Q23.87 4.75 23.81 4.33Q23.74 3.91 23.74 3.74Q23.74 3.58 23.74 3.53L23.74 3.53L23.87 3.42Q24.63 3.16 25.37 3.16L25.37 3.16L25.52 3.16ZM25.94 7.78L25.94 7.78L25.94 10.78Q25.94 12.11 26.35 12.98L26.35 12.98L26.35 13.29L23.90 13.29L23.90 12.98Q24.14 12.26 24.14 11.09L24.14 11.09L24.14 9.02Q24.14 8.25 23.90 7.73Q23.66 7.22 23.30 7.03L23.30 7.03L23.30 6.72L25.86 6.24L26.03 6.52Q25.94 6.85 25.94 7.78ZM30.63 7.56L30.63 10.37Q30.63 11.03 30.76 11.83Q30.88 12.63 31.04 12.98L31.04 12.98L31.04 13.29L28.59 13.29L28.59 12.98Q28.83 12.28 28.83 10.70L28.83 10.70L28.83 7.53Q28.00 7.56 27.59 7.60L27.59 7.60L28.01 6.43L28.83 6.47L28.83 5.71Q28.83 4.49 29.44 3.71Q30.06 2.93 31.36 2.93Q32.66 2.93 34.10 3.53L34.10 3.53Q33.63 4.61 33.26 5.07L33.26 5.07Q32.12 4.09 31.33 4.09L31.33 4.09Q31.02 4.09 30.84 4.20L30.84 4.20Q30.63 4.52 30.63 5.91L30.63 5.91L30.63 6.48Q31.25 6.45 32.82 6.36L32.82 6.36L32.31 7.73Q31.40 7.60 30.63 7.56L30.63 7.56ZM35.70 3.16L35.85 3.25Q35.98 3.36 36.03 3.72Q36.08 4.09 36.08 4.28Q36.08 4.48 36.05 4.63L36.05 4.63L35.92 4.75Q35.31 4.93 34.31 5.00L34.31 5.00L34.16 4.93Q34.05 4.75 33.98 4.33Q33.92 3.91 33.92 3.74Q33.92 3.58 33.92 3.53L33.92 3.53L34.05 3.42Q34.80 3.16 35.55 3.16L35.55 3.16L35.70 3.16ZM36.12 7.78L36.12 7.78L36.12 10.78Q36.12 12.11 36.53 12.98L36.53 12.98L36.53 13.29L34.08 13.29L34.08 12.98Q34.31 12.26 34.31 11.09L34.31 11.09L34.31 9.02Q34.31 8.25 34.08 7.73Q33.84 7.22 33.47 7.03L33.47 7.03L33.47 6.72L36.04 6.24L36.20 6.52Q36.12 6.85 36.12 7.78ZM40.98 13.55L40.98 13.55Q39.76 13.55 38.79 12.64Q37.83 11.73 37.83 10.18Q37.83 8.64 38.85 7.47Q39.87 6.30 41.50 6.30L41.50 6.30Q42.87 6.30 43.54 7.18Q44.21 8.06 44.21 9.62L44.21 9.62L43.68 10.16L39.84 10.16Q39.86 11.17 40.38 11.72Q40.91 12.26 41.64 12.26Q42.38 12.26 43.86 11.49L43.86 11.49L44.21 12.03Q43.95 12.28 43.61 12.54Q43.27 12.81 42.48 13.18Q41.69 13.55 40.98 13.55ZM41.17 7.20L41.17 7.20Q40.66 7.20 40.35 7.41L40.35 7.41Q40.12 7.76 40.00 8.33Q39.87 8.90 39.86 9.35L39.86 9.35L42.31 9.21Q42.31 7.20 41.17 7.20ZM48.82 13.55L48.82 13.55Q47.17 13.55 46.31 12.53Q45.46 11.51 45.46 9.97Q45.46 8.44 46.54 7.37Q47.63 6.30 49.29 6.30L49.29 6.30Q49.91 6.30 50.48 6.40L50.48 6.40L50.48 5.14Q50.48 4.21 49.85 3.64L49.85 3.64L49.85 3.33L52.19 2.84L52.33 3.15Q52.29 3.42 52.29 4.21L52.29 4.21L52.29 10.75Q52.29 11.40 52.48 11.96Q52.67 12.52 52.98 12.73L52.98 12.73L53.00 13.03L50.90 13.58Q50.75 13.15 50.62 12.63L50.62 12.63Q49.70 13.55 48.82 13.55ZM47.47 9.79L47.47 9.79Q47.47 10.85 47.85 11.64Q48.23 12.43 48.94 12.43Q49.66 12.43 50.48 11.77L50.48 11.77L50.48 7.85Q49.66 7.32 48.68 7.32L48.68 7.32Q48.26 7.32 48.02 7.50L48.02 7.50Q47.47 8.18 47.47 9.79ZM59.29 3.51L59.29 3.51L61.68 3.49Q63.34 3.49 64.20 3.93Q65.07 4.38 65.07 5.50L65.07 5.50Q65.07 6.26 64.69 6.80Q64.30 7.35 63.73 7.63L63.73 7.63Q64.41 7.80 65.03 8.32L65.03 8.32Q65.77 8.93 65.77 10.09Q65.77 11.24 65.20 11.96Q64.62 12.67 63.73 12.99Q62.85 13.31 61.50 13.31L61.50 13.31Q59.32 13.26 59.26 13.26L59.26 13.26L58.14 13.29L58.14 12.96Q58.42 12.28 58.42 11.00L58.42 11.00L58.42 5.89Q58.42 4.52 58.18 3.79L58.18 3.79L58.18 3.49Q58.58 3.51 59.29 3.51ZM60.90 8.29L60.90 8.29L60.41 8.29Q60.41 11.63 60.45 12.31L60.45 12.31Q61.01 12.39 61.31 12.39L61.31 12.39Q62.37 12.39 63.02 11.82Q63.67 11.24 63.67 10.28L63.67 10.28Q63.67 8.29 60.90 8.29ZM63.15 5.89Q63.15 5.05 62.73 4.70Q62.31 4.35 61.55 4.35Q60.79 4.35 60.42 4.40L60.42 4.40Q60.41 4.59 60.41 7.43L60.41 7.43L61.36 7.43Q63.15 7.43 63.15 5.89L63.15 5.89ZM70.32 13.47L70.32 13.47Q68.89 13.47 68.40 12.86Q67.90 12.25 67.90 10.88L67.90 10.88L67.90 9.21Q67.90 7.83 67.48 6.87L67.48 6.87L67.48 6.57L69.92 6.57L69.92 6.90Q69.71 7.63 69.71 8.79L69.71 8.79L69.71 10.65Q69.71 11.35 69.94 11.74Q70.18 12.12 70.62 12.12L70.62 12.12Q71.36 12.12 72.38 11.41L72.38 11.41L72.38 9.21Q72.38 7.80 71.97 6.87L71.97 6.87L71.97 6.57L74.40 6.57L74.40 6.90Q74.19 7.63 74.19 8.79L74.19 8.79L74.19 10.65Q74.19 11.28 74.39 11.89Q74.59 12.49 74.87 12.73L74.87 12.73L74.91 13.03L72.72 13.59Q72.42 13.09 72.38 12.46L72.38 12.46Q71.18 13.47 70.32 13.47ZM78.55 3.16L78.71 3.25Q78.83 3.36 78.88 3.72Q78.93 4.09 78.93 4.28Q78.93 4.48 78.90 4.63L78.90 4.63L78.78 4.75Q78.16 4.93 77.17 5.00L77.17 5.00L77.01 4.93Q76.90 4.75 76.84 4.33Q76.78 3.91 76.78 3.74Q76.78 3.58 76.78 3.53L76.78 3.53L76.90 3.42Q77.66 3.16 78.40 3.16L78.40 3.16L78.55 3.16ZM78.97 7.78L78.97 7.78L78.97 10.78Q78.97 12.11 79.38 12.98L79.38 12.98L79.38 13.29L76.93 13.29L76.93 12.98Q77.17 12.26 77.17 11.09L77.17 11.09L77.17 9.02Q77.17 8.25 76.93 7.73Q76.69 7.22 76.33 7.03L76.33 7.03L76.33 6.72L78.89 6.24L79.06 6.52Q78.97 6.85 78.97 7.78ZM83.08 2.84L83.24 3.15Q83.19 3.82 83.19 4.75Q83.19 5.67 83.20 5.88L83.20 5.88L83.20 10.95Q83.20 12.25 83.43 12.98L83.43 12.98L83.44 13.29L81.17 13.29L81.17 12.98Q81.40 12.25 81.40 10.95L81.40 10.95L81.40 5.45Q81.40 4.24 80.77 3.64L80.77 3.64L80.77 3.33L83.08 2.84ZM88.27 13.55L88.27 13.55Q86.62 13.55 85.76 12.53Q84.91 11.51 84.91 9.97Q84.91 8.44 86.00 7.37Q87.08 6.30 88.75 6.30L88.75 6.30Q89.36 6.30 89.94 6.40L89.94 6.40L89.94 5.14Q89.94 4.21 89.31 3.64L89.31 3.64L89.31 3.33L91.64 2.84L91.78 3.15Q91.74 3.42 91.74 4.21L91.74 4.21L91.74 10.75Q91.74 11.40 91.93 11.96Q92.12 12.52 92.43 12.73L92.43 12.73L92.46 13.03L90.36 13.58Q90.20 13.15 90.08 12.63L90.08 12.63Q89.15 13.55 88.27 13.55ZM86.93 9.79L86.93 9.79Q86.93 10.85 87.30 11.64Q87.68 12.43 88.40 12.43Q89.11 12.43 89.94 11.77L89.94 11.77L89.94 7.85Q89.11 7.32 88.13 7.32L88.13 7.32Q87.71 7.32 87.47 7.50L87.47 7.50Q86.93 8.18 86.93 9.79ZM96.70 13.55L96.70 13.55Q95.48 13.55 94.51 12.64Q93.55 11.73 93.55 10.18Q93.55 8.64 94.57 7.47Q95.59 6.30 97.22 6.30L97.22 6.30Q98.59 6.30 99.26 7.18Q99.93 8.06 99.93 9.62L99.93 9.62L99.40 10.16L95.56 10.16Q95.58 11.17 96.10 11.72Q96.63 12.26 97.36 12.26Q98.10 12.26 99.58 11.49L99.58 11.49L99.93 12.03Q99.67 12.28 99.33 12.54Q98.99 12.81 98.20 13.18Q97.41 13.55 96.70 13.55ZM96.89 7.20L96.89 7.20Q96.38 7.20 96.07 7.41L96.07 7.41Q95.84 7.76 95.72 8.33Q95.59 8.90 95.58 9.35L95.58 9.35L98.03 9.21Q98.03 7.20 96.89 7.20ZM104.17 12.98L104.17 13.29L101.72 13.29L101.72 12.98Q101.96 12.22 101.96 11.10L101.96 11.10L101.96 9.02Q101.96 8.40 101.73 7.82Q101.50 7.24 101.18 7.06L101.18 7.06L101.18 6.75L103.15 6.29L103.29 6.48Q103.38 6.61 103.54 7.06L103.54 7.06Q104.45 6.30 105.45 6.30L105.45 6.30Q105.94 6.30 106.36 6.50L106.36 6.50Q106.36 6.57 106.36 6.62L106.36 6.62Q106.36 7.50 106.01 8.39L106.01 8.39Q105.27 7.87 104.41 7.87L104.41 7.87Q104.15 7.87 103.77 7.95L103.77 7.95L103.77 10.71Q103.77 12.05 104.17 12.98L104.17 12.98ZM110.12 12.38L110.12 12.38Q110.92 12.38 110.92 11.61L110.92 11.61Q110.92 10.89 109.56 10.53L109.56 10.53Q109.00 10.37 108.44 10.18Q107.88 9.98 107.49 9.55Q107.10 9.11 107.10 8.44L107.10 8.44Q107.10 7.48 107.97 6.94Q108.84 6.40 110.08 6.40Q111.33 6.40 112.69 7.00L112.69 7.00Q112.62 7.62 111.93 8.48L111.93 8.48Q111.37 7.92 110.77 7.63Q110.17 7.34 109.72 7.34Q109.27 7.34 109.03 7.43L109.03 7.43Q108.82 7.62 108.82 8.03Q108.82 8.44 109.22 8.67Q109.62 8.89 110.19 9.02Q110.77 9.16 111.34 9.35Q111.92 9.55 112.32 10.02Q112.71 10.49 112.71 11.24L112.71 11.24Q112.71 12.33 111.87 12.89Q111.02 13.44 109.62 13.44Q108.22 13.44 106.95 12.64L106.95 12.64Q107.00 11.80 107.58 11.09L107.58 11.09Q108.96 12.38 110.12 12.38ZM119.27 8.04L119.27 8.04Q119.27 9.97 120.24 11.03Q121.21 12.10 122.67 12.10L122.67 12.10Q123.76 12.10 125.75 11.09L125.75 11.09L126.27 11.84Q125.22 12.53 124.83 12.74Q124.45 12.95 123.64 13.20Q122.84 13.45 122.04 13.45L122.04 13.45Q120.01 13.45 118.58 12.10Q117.15 10.74 117.15 8.46Q117.15 6.17 118.80 4.75Q120.44 3.32 122.88 3.32L122.88 3.32Q124.52 3.32 126.04 4.05L126.04 4.05Q125.86 4.93 125.24 5.77L125.24 5.77Q124.28 5.05 123.49 4.78Q122.71 4.51 122.06 4.51Q121.41 4.51 120.93 4.58L120.93 4.58Q120.20 5.08 119.74 5.95Q119.27 6.82 119.27 8.04ZM130.49 13.55Q128.86 13.55 127.93 12.60Q126.99 11.65 126.99 10.09Q126.99 8.54 128.07 7.43Q129.15 6.31 130.82 6.31Q132.50 6.31 133.39 7.24Q134.27 8.18 134.27 9.74Q134.27 11.31 133.20 12.43Q132.12 13.55 130.49 13.55ZM132.26 10.09L132.26 10.09Q132.26 8.74 131.87 7.97Q131.47 7.21 130.49 7.21L130.49 7.21Q129.86 7.21 129.51 7.52L129.51 7.52Q129.29 7.84 129.15 8.48Q129.01 9.13 129.01 9.73L129.01 9.73Q129.01 12.66 130.87 12.66L130.87 12.66Q131.43 12.66 131.78 12.36L131.78 12.36Q132.02 12.04 132.14 11.38Q132.26 10.71 132.26 10.09ZM140.50 6.30L140.50 6.30Q141.55 6.30 142.13 6.95Q142.70 7.60 142.70 8.83L142.70 8.83L142.70 10.61Q142.70 12.00 143.12 12.98L143.12 12.98L143.12 13.29L140.66 13.29L140.66 12.98Q140.90 12.32 140.90 11.09L140.90 11.09L140.90 9.34Q140.90 8.53 140.70 8.14Q140.50 7.76 139.86 7.76Q139.22 7.76 138.22 8.34L138.22 8.34L138.22 10.64Q138.22 12.11 138.63 12.98L138.63 12.98L138.63 13.29L136.18 13.29L136.18 12.98Q136.42 12.26 136.42 10.99L136.42 10.99L136.42 9.11Q136.42 7.45 135.58 7.03L135.58 7.03L135.58 6.72L137.84 6.29L138.00 6.55Q138.11 6.89 138.15 7.45L138.15 7.45Q138.87 6.87 139.39 6.59Q139.92 6.30 140.50 6.30ZM147.76 12.38L147.76 12.38Q148.55 12.38 148.55 11.61L148.55 11.61Q148.55 10.89 147.20 10.53L147.20 10.53Q146.64 10.37 146.08 10.18Q145.52 9.98 145.12 9.55Q144.73 9.11 144.73 8.44L144.73 8.44Q144.73 7.48 145.60 6.94Q146.47 6.40 147.71 6.40Q148.96 6.40 150.32 7.00L150.32 7.00Q150.25 7.62 149.56 8.48L149.56 8.48Q149.00 7.92 148.40 7.63Q147.80 7.34 147.35 7.34Q146.90 7.34 146.66 7.43L146.66 7.43Q146.45 7.62 146.45 8.03Q146.45 8.44 146.85 8.67Q147.25 8.89 147.83 9.02Q148.40 9.16 148.97 9.35Q149.55 9.55 149.95 10.02Q150.35 10.49 150.35 11.24L150.35 11.24Q150.35 12.33 149.50 12.89Q148.65 13.44 147.25 13.44Q145.85 13.44 144.58 12.64L144.58 12.64Q144.63 11.80 145.21 11.09L145.21 11.09Q146.59 12.38 147.76 12.38ZM154.56 13.47L154.56 13.47Q153.13 13.47 152.64 12.86Q152.14 12.25 152.14 10.88L152.14 10.88L152.14 9.21Q152.14 7.83 151.72 6.87L151.72 6.87L151.72 6.57L154.15 6.57L154.15 6.90Q153.94 7.63 153.94 8.79L153.94 8.79L153.94 10.65Q153.94 11.35 154.18 11.74Q154.42 12.12 154.85 12.12L154.85 12.12Q155.60 12.12 156.62 11.41L156.62 11.41L156.62 9.21Q156.62 7.80 156.21 6.87L156.21 6.87L156.21 6.57L158.63 6.57L158.63 6.90Q158.42 7.63 158.42 8.79L158.42 8.79L158.42 10.65Q158.42 11.28 158.63 11.89Q158.83 12.49 159.11 12.73L159.11 12.73L159.15 13.03L156.95 13.59Q156.66 13.09 156.62 12.46L156.62 12.46Q155.41 13.47 154.56 13.47ZM162.92 2.84L163.09 3.15Q163.03 3.82 163.03 4.75Q163.03 5.67 163.04 5.88L163.04 5.88L163.04 10.95Q163.04 12.25 163.27 12.98L163.27 12.98L163.28 13.29L161.01 13.29L161.01 12.98Q161.24 12.25 161.24 10.95L161.24 10.95L161.24 5.45Q161.24 4.24 160.61 3.64L160.61 3.64L160.61 3.33L162.92 2.84ZM167.51 7.57L167.51 11.66Q167.51 12.17 167.78 12.17L167.78 12.17Q168.15 12.17 169.19 11.73L169.19 11.73L169.61 12.36Q169.05 12.73 168.28 13.08Q167.51 13.44 166.94 13.44L166.94 13.44Q165.70 13.44 165.70 12.03L165.70 12.03L165.70 7.57Q165.49 7.57 164.32 7.67L164.32 7.67L164.82 6.41Q165.07 6.45 165.72 6.48L165.72 6.48Q165.69 5.84 165.63 5.29L165.63 5.29L167.51 4.82L167.51 6.47Q168.07 6.45 169.71 6.29L169.71 6.29L169.16 7.73Q168.45 7.60 167.51 7.57L167.51 7.57ZM174.72 11.68L174.72 10.49Q174.22 10.30 173.61 10.30Q173.00 10.30 172.68 10.53L172.68 10.53Q172.47 10.79 172.47 11.23L172.47 11.23Q172.47 12.32 173.42 12.32L173.42 12.32Q174.20 12.32 174.72 11.68L174.72 11.68ZM172.84 13.54L172.84 13.54Q171.96 13.54 171.29 13.01Q170.62 12.47 170.62 11.47L170.62 11.47Q170.62 9.52 173.46 9.52L173.46 9.52L174.71 9.58L174.71 8.72Q174.71 7.99 174.34 7.55Q173.98 7.10 173.22 7.10L173.22 7.10Q173.05 7.10 172.79 7.27Q172.52 7.45 172.34 7.63L172.34 7.63Q171.77 8.18 171.42 8.53L171.42 8.53Q170.72 7.70 170.66 6.86L170.66 6.86Q172.45 6.30 173.68 6.30Q174.92 6.30 175.74 6.87Q176.57 7.45 176.57 8.68L176.57 8.68L176.57 10.88Q176.57 11.51 176.78 12.08Q176.99 12.66 177.30 12.85L177.30 12.85L177.32 13.16L175.32 13.58Q175.10 13.16 174.90 12.40L174.90 12.40Q174.54 12.80 174.31 12.98Q174.09 13.17 173.69 13.36Q173.29 13.54 172.84 13.54ZM183.33 6.30L183.33 6.30Q184.38 6.30 184.95 6.95Q185.53 7.60 185.53 8.83L185.53 8.83L185.53 10.61Q185.53 12.00 185.95 12.98L185.95 12.98L185.95 13.29L183.48 13.29L183.48 12.98Q183.72 12.32 183.72 11.09L183.72 11.09L183.72 9.34Q183.72 8.53 183.53 8.14Q183.33 7.76 182.69 7.76Q182.04 7.76 181.05 8.34L181.05 8.34L181.05 10.64Q181.05 12.11 181.45 12.98L181.45 12.98L181.45 13.29L179.00 13.29L179.00 12.98Q179.24 12.26 179.24 10.99L179.24 10.99L179.24 9.11Q179.24 7.45 178.40 7.03L178.40 7.03L178.40 6.72L180.67 6.29L180.82 6.55Q180.94 6.89 180.98 7.45L180.98 7.45Q181.69 6.87 182.22 6.59Q182.74 6.30 183.33 6.30ZM190.16 7.57L190.16 11.66Q190.16 12.17 190.43 12.17L190.43 12.17Q190.81 12.17 191.84 11.73L191.84 11.73L192.26 12.36Q191.70 12.73 190.93 13.08Q190.16 13.44 189.59 13.44L189.59 13.44Q188.36 13.44 188.36 12.03L188.36 12.03L188.36 7.57Q188.15 7.57 186.97 7.67L186.97 7.67L187.47 6.41Q187.73 6.45 188.37 6.48L188.37 6.48Q188.34 5.84 188.29 5.29L188.29 5.29L190.16 4.82L190.16 6.47Q190.72 6.45 192.36 6.29L192.36 6.29L191.81 7.73Q191.10 7.60 190.16 7.57L190.16 7.57Z"></path></g><defs data-v-fde0c5aa=""><linearGradient data-v-fde0c5aa="" gradientTransform="rotate(25)" id="7307631f-109b-42fa-862b-17244294e890" x1="0%" y1="0%" x2="100%" y2="0%"><stop data-v-fde0c5aa="" offset="0%" stop-color="#B4373D" stop-opacity="1"></stop><stop data-v-fde0c5aa="" offset="100%" stop-color="#B23ACB" stop-opacity="1"></stop></linearGradient></defs><g data-v-fde0c5aa="" id="e7e67168-7a91-475f-a862-6b0258d230fb" stroke="none" fill="url(#7307631f-109b-42fa-862b-17244294e890)" transform="matrix(0.6318874283088282,0,0,0.6318874283088282,40,133.86317425720998)"><path d="M24.249 37.462c.078.375.072.768-.039 1.146a2.237 2.237 0 01-.545.961 2.3 2.3 0 01-3.228.045l-4.923-4.824-.863 1.059 4.925 4.824c1.221 1.186 3.875 1.111 5.075-.107.416-.424 1.003-1.389 1.127-1.947l11.006.01c1.27 0 2.528 1.184 2.528 2.449 0 1.277-.834 2.84-2.581 2.84H18.626c-.817-.025-1.838-.443-2.551-1.047l-10.318-7.87-5.748.023L0 26.233h.048v-.076h11.466s1.2.027 2.026.506c.761.447 1.44 1.096 1.44 1.096l8.631 8.598c.314.3.532.677.638 1.105z"></path><path d="M45.509 37.042l.031-16.319 2.537 2.318 2.286-2.501L35.7 7.157l-6.519 5.837V9.8h-3.482v6.314l-4.793 4.293 2.259 2.522 2.534-2.27.017 16.385h4.316v-8.451h4.15v8.447h11.327zm-8.304-16.601h4.15v4.28h-4.15v-4.28zm-7.174 4.28v-4.28h4.152v4.28h-4.152z"></path></g><defs data-v-fde0c5aa=""><!----></defs><g data-v-fde0c5aa="" id="b50ec7d6-40a5-467e-9861-65766d46535c" fill="#000000" transform="matrix(0.42542259316613357,0,0,0.42542259316613357,84.31749057560278,152.47666392271205)"><path d="M7.35 12.15L7.35 15.68L6.17 15.68L6.17 12.40Q6.17 12.04 6.01 11.84Q5.84 11.65 5.42 11.65L5.42 11.65L2.37 11.65L2.37 15.68L1.19 15.68L1.19 5.88L4.69 5.88Q5.45 5.88 6.01 6.10Q6.57 6.31 6.94 6.68Q7.31 7.04 7.50 7.53Q7.69 8.01 7.69 8.54L7.69 8.54L7.69 8.96Q7.69 9.51 7.38 10.05Q7.08 10.60 6.45 10.89L6.45 10.89L6.45 11.06Q6.87 11.13 7.11 11.40Q7.35 11.66 7.35 12.15L7.35 12.15ZM2.37 6.97L2.37 10.56L4.55 10.56Q5.54 10.56 6.03 10.13Q6.51 9.70 6.51 8.88L6.51 8.88L6.51 8.62Q6.51 7.88 6.03 7.43Q5.54 6.97 4.55 6.97L4.55 6.97L2.37 6.97ZM16.88 15.68L16.88 5.88L22.82 5.88L22.82 6.97L18.06 6.97L18.06 10.22L22.74 10.22L22.74 11.31L18.06 11.31L18.06 14.59L22.90 14.59L22.90 15.68L16.88 15.68ZM38.49 12.15L38.49 15.68L37.31 15.68L37.31 12.40Q37.31 12.04 37.14 11.84Q36.97 11.65 36.55 11.65L36.55 11.65L33.50 11.65L33.50 15.68L32.33 15.68L32.33 5.88L35.83 5.88Q36.58 5.88 37.14 6.10Q37.70 6.31 38.07 6.68Q38.44 7.04 38.63 7.53Q38.82 8.01 38.82 8.54L38.82 8.54L38.82 8.96Q38.82 9.51 38.52 10.05Q38.22 10.60 37.59 10.89L37.59 10.89L37.59 11.06Q38.01 11.13 38.25 11.40Q38.49 11.66 38.49 12.15L38.49 12.15ZM33.50 6.97L33.50 10.56L35.69 10.56Q36.68 10.56 37.16 10.13Q37.65 9.70 37.65 8.88L37.65 8.88L37.65 8.62Q37.65 7.88 37.16 7.43Q36.68 6.97 35.69 6.97L35.69 6.97L33.50 6.97ZM53.80 15.68L53.09 13.24L48.89 13.24L48.17 15.68L46.91 15.68L49.88 5.88L52.09 5.88L55.06 15.68L53.80 15.68ZM51.07 6.38L50.90 6.38L49.21 12.15L52.77 12.15L51.07 6.38ZM85.19 12.15L85.19 15.68L84.01 15.68L84.01 12.40Q84.01 12.04 83.85 11.84Q83.68 11.65 83.26 11.65L83.26 11.65L80.21 11.65L80.21 15.68L79.03 15.68L79.03 5.88L82.53 5.88Q83.29 5.88 83.85 6.10Q84.41 6.31 84.78 6.68Q85.15 7.04 85.34 7.53Q85.53 8.01 85.53 8.54L85.53 8.54L85.53 8.96Q85.53 9.51 85.23 10.05Q84.92 10.60 84.29 10.89L84.29 10.89L84.29 11.06Q84.71 11.13 84.95 11.40Q85.19 11.66 85.19 12.15L85.19 12.15ZM80.21 6.97L80.21 10.56L82.39 10.56Q83.38 10.56 83.87 10.13Q84.35 9.70 84.35 8.88L84.35 8.88L84.35 8.62Q84.35 7.88 83.87 7.43Q83.38 6.97 82.39 6.97L82.39 6.97L80.21 6.97ZM94.72 15.68L94.72 5.88L100.66 5.88L100.66 6.97L95.90 6.97L95.90 10.22L100.58 10.22L100.58 11.31L95.90 11.31L95.90 14.59L100.74 14.59L100.74 15.68L94.72 15.68ZM112.32 12.07L112.32 10.98L116.69 10.98L116.69 15.68L115.60 15.68L115.60 14.50L115.43 14.50Q115.19 15.12 114.59 15.50Q113.99 15.88 113.19 15.88L113.19 15.88Q111.61 15.88 110.70 14.85Q109.80 13.83 109.80 11.87L109.80 11.87L109.80 9.69Q109.80 7.78 110.71 6.73Q111.62 5.68 113.25 5.68L113.25 5.68Q114.09 5.68 114.73 5.96Q115.37 6.23 115.81 6.71Q116.24 7.20 116.47 7.85Q116.69 8.50 116.69 9.24L116.69 9.24L116.69 9.41L115.51 9.41L115.51 9.24Q115.51 8.76 115.38 8.32Q115.25 7.87 114.97 7.53Q114.70 7.18 114.28 6.98Q113.85 6.78 113.25 6.78L113.25 6.78Q112.11 6.78 111.55 7.60Q110.98 8.43 110.98 9.77L110.98 9.77L110.98 11.79Q110.98 13.23 111.55 14.01Q112.11 14.78 113.27 14.78L113.27 14.78Q114.32 14.78 114.92 14.11Q115.51 13.44 115.51 12.24L115.51 12.24L115.51 12.07L112.32 12.07ZM125.72 6.97L125.72 5.88L131.94 5.88L131.94 6.97L129.42 6.97L129.42 14.59L131.94 14.59L131.94 15.68L125.72 15.68L125.72 14.59L128.24 14.59L128.24 6.97L125.72 6.97ZM146.71 9.21L146.71 8.71Q146.71 8.23 146.52 7.87Q146.33 7.50 146.01 7.27Q145.68 7.03 145.26 6.90Q144.84 6.78 144.38 6.78L144.38 6.78Q143.98 6.78 143.61 6.88Q143.25 6.99 142.96 7.18Q142.67 7.38 142.51 7.66Q142.34 7.95 142.34 8.33L142.34 8.33L142.34 8.41Q142.34 8.82 142.51 9.11Q142.67 9.39 143.00 9.60Q143.33 9.80 143.82 9.93Q144.31 10.07 144.97 10.16L144.97 10.16Q146.51 10.40 147.24 11.07Q147.97 11.73 147.97 12.85L147.97 12.85L147.97 13.02Q147.97 13.65 147.75 14.17Q147.53 14.70 147.10 15.08Q146.68 15.46 146.05 15.67Q145.42 15.88 144.59 15.88L144.59 15.88Q143.65 15.88 142.93 15.60Q142.21 15.33 141.73 14.85Q141.25 14.36 140.99 13.71Q140.74 13.06 140.74 12.29L140.74 12.29L140.74 11.87L141.92 11.87L141.92 12.21Q141.92 13.50 142.63 14.14Q143.33 14.78 144.59 14.78L144.59 14.78Q145.68 14.78 146.24 14.30Q146.79 13.82 146.79 13.02L146.79 13.02L146.79 12.94Q146.79 12.17 146.22 11.76Q145.66 11.35 144.38 11.17L144.38 11.17Q143.64 11.07 143.04 10.87Q142.45 10.67 142.03 10.34Q141.61 10.01 141.39 9.55Q141.16 9.09 141.16 8.46L141.16 8.46L141.16 8.29Q141.16 7.71 141.40 7.24Q141.64 6.76 142.06 6.41Q142.49 6.06 143.09 5.87Q143.68 5.68 144.40 5.68L144.40 5.68Q145.22 5.68 145.87 5.92Q146.52 6.16 146.97 6.56Q147.42 6.96 147.65 7.50Q147.88 8.04 147.88 8.62L147.88 8.62L147.88 9.21L146.71 9.21ZM156.52 6.97L156.52 5.88L163.41 5.88L163.41 6.97L160.55 6.97L160.55 15.68L159.38 15.68L159.38 6.97L156.52 6.97ZM172.56 15.68L172.56 5.88L178.50 5.88L178.50 6.97L173.74 6.97L173.74 10.22L178.42 10.22L178.42 11.31L173.74 11.31L173.74 14.59L178.58 14.59L178.58 15.68L172.56 15.68ZM194.17 12.15L194.17 15.68L192.99 15.68L192.99 12.40Q192.99 12.04 192.82 11.84Q192.65 11.65 192.23 11.65L192.23 11.65L189.18 11.65L189.18 15.68L188.01 15.68L188.01 5.88L191.51 5.88Q192.26 5.88 192.82 6.10Q193.38 6.31 193.75 6.68Q194.12 7.04 194.31 7.53Q194.50 8.01 194.50 8.54L194.50 8.54L194.50 8.96Q194.50 9.51 194.20 10.05Q193.90 10.60 193.27 10.89L193.27 10.89L193.27 11.06Q193.69 11.13 193.93 11.40Q194.17 11.66 194.17 12.15L194.17 12.15ZM189.18 6.97L189.18 10.56L191.37 10.56Q192.36 10.56 192.84 10.13Q193.33 9.70 193.33 8.88L193.33 8.88L193.33 8.62Q193.33 7.88 192.84 7.43Q192.36 6.97 191.37 6.97L191.37 6.97L189.18 6.97ZM203.70 15.68L203.70 5.88L209.64 5.88L209.64 6.97L204.88 6.97L204.88 10.22L209.55 10.22L209.55 11.31L204.88 11.31L204.88 14.59L209.72 14.59L209.72 15.68L203.70 15.68ZM218.97 6.97L218.97 5.88L222.19 5.88Q224.01 5.88 224.85 6.75Q225.69 7.62 225.69 9.52L225.69 9.52L225.69 12.04Q225.69 13.94 224.85 14.81Q224.01 15.68 222.19 15.68L222.19 15.68L218.97 15.68L218.97 14.57L219.81 14.57L219.81 6.97L218.97 6.97ZM220.99 14.59L222.03 14.59Q222.67 14.59 223.14 14.46Q223.61 14.34 223.92 14.04Q224.22 13.73 224.37 13.23Q224.52 12.73 224.52 11.96L224.52 11.96L224.52 9.60Q224.52 8.83 224.37 8.33Q224.22 7.83 223.92 7.53Q223.61 7.22 223.14 7.10Q222.67 6.97 222.03 6.97L222.03 6.97L220.99 6.97L220.99 14.59ZM253.43 14.78L253.43 14.78Q254.03 14.78 254.46 14.58Q254.88 14.38 255.16 14.04Q255.43 13.69 255.56 13.25Q255.70 12.81 255.70 12.32L255.70 12.32L255.70 12.15L256.87 12.15L256.87 12.32Q256.87 13.06 256.65 13.71Q256.42 14.36 255.99 14.85Q255.56 15.33 254.91 15.60Q254.27 15.88 253.43 15.88L253.43 15.88Q251.80 15.88 250.89 14.85Q249.98 13.83 249.98 11.87L249.98 11.87L249.98 9.69Q249.98 7.78 250.89 6.73Q251.80 5.68 253.43 5.68L253.43 5.68Q254.27 5.68 254.91 5.96Q255.56 6.23 255.99 6.71Q256.42 7.20 256.65 7.85Q256.87 8.50 256.87 9.24L256.87 9.24L256.87 9.41L255.70 9.41L255.70 9.24Q255.68 8.76 255.55 8.32Q255.42 7.87 255.14 7.53Q254.87 7.18 254.45 6.98Q254.03 6.78 253.43 6.78L253.43 6.78Q252.29 6.78 251.73 7.60Q251.16 8.43 251.16 9.77L251.16 9.77L251.16 11.79Q251.16 13.23 251.73 14.01Q252.29 14.78 253.43 14.78ZM265.50 11.87L265.50 9.69Q265.50 7.78 266.41 6.73Q267.32 5.68 268.94 5.68L268.94 5.68Q270.56 5.68 271.47 6.73Q272.38 7.78 272.38 9.69L272.38 9.69L272.38 11.87Q272.38 13.83 271.47 14.85Q270.56 15.88 268.94 15.88L268.94 15.88Q267.32 15.88 266.41 14.85Q265.50 13.83 265.50 11.87L265.50 11.87ZM268.94 14.78L268.94 14.78Q270.07 14.78 270.64 14.01Q271.21 13.23 271.21 11.79L271.21 11.79L271.21 9.77Q271.21 8.43 270.64 7.60Q270.07 6.78 268.94 6.78L268.94 6.78Q267.81 6.78 267.24 7.60Q266.67 8.43 266.67 9.77L266.67 9.77L266.67 11.79Q266.67 13.23 267.24 14.01Q267.81 14.78 268.94 14.78ZM283.60 5.88L286.43 15.18L286.59 15.18L286.59 5.88L287.77 5.88L287.77 15.68L285.42 15.68L282.59 6.38L282.42 6.38L282.42 15.68L281.25 15.68L281.25 5.88L283.60 5.88ZM302.39 9.21L302.39 8.71Q302.39 8.23 302.20 7.87Q302.01 7.50 301.69 7.27Q301.36 7.03 300.94 6.90Q300.52 6.78 300.06 6.78L300.06 6.78Q299.66 6.78 299.29 6.88Q298.93 6.99 298.64 7.18Q298.35 7.38 298.19 7.66Q298.02 7.95 298.02 8.33L298.02 8.33L298.02 8.41Q298.02 8.82 298.19 9.11Q298.35 9.39 298.68 9.60Q299.01 9.80 299.50 9.93Q299.99 10.07 300.65 10.16L300.65 10.16Q302.19 10.40 302.92 11.07Q303.65 11.73 303.65 12.85L303.65 12.85L303.65 13.02Q303.65 13.65 303.43 14.17Q303.21 14.70 302.79 15.08Q302.36 15.46 301.73 15.67Q301.10 15.88 300.27 15.88L300.27 15.88Q299.33 15.88 298.61 15.60Q297.89 15.33 297.41 14.85Q296.93 14.36 296.67 13.71Q296.42 13.06 296.42 12.29L296.42 12.29L296.42 11.87L297.60 11.87L297.60 12.21Q297.60 13.50 298.31 14.14Q299.01 14.78 300.27 14.78L300.27 14.78Q301.36 14.78 301.92 14.30Q302.47 13.82 302.47 13.02L302.47 13.02L302.47 12.94Q302.47 12.17 301.90 11.76Q301.34 11.35 300.06 11.17L300.06 11.17Q299.32 11.07 298.73 10.87Q298.13 10.67 297.71 10.34Q297.29 10.01 297.07 9.55Q296.84 9.09 296.84 8.46L296.84 8.46L296.84 8.29Q296.84 7.71 297.08 7.24Q297.32 6.76 297.75 6.41Q298.17 6.06 298.77 5.87Q299.36 5.68 300.08 5.68L300.08 5.68Q300.90 5.68 301.55 5.92Q302.20 6.16 302.65 6.56Q303.10 6.96 303.33 7.50Q303.56 8.04 303.56 8.62L303.56 8.62L303.56 9.21L302.39 9.21ZM312.28 5.88L313.46 5.88L313.46 12.38Q313.46 13.57 314.01 14.17Q314.57 14.78 315.64 14.78L315.64 14.78Q316.72 14.78 317.28 14.17Q317.83 13.57 317.83 12.38L317.83 12.38L317.83 5.88L319.00 5.88L319.00 12.38Q319.00 14.08 318.11 14.98Q317.21 15.88 315.64 15.88L315.64 15.88Q314.08 15.88 313.18 14.98Q312.28 14.08 312.28 12.38L312.28 12.38L312.28 5.88ZM328.15 15.68L328.15 5.88L329.32 5.88L329.32 14.59L334.45 14.59L334.45 15.68L328.15 15.68ZM343.34 6.97L343.34 5.88L350.22 5.88L350.22 6.97L347.37 6.97L347.37 15.68L346.19 15.68L346.19 6.97L343.34 6.97ZM365.16 15.68L364.45 13.24L360.25 13.24L359.53 15.68L358.27 15.68L361.24 5.88L363.45 5.88L366.42 15.68L365.16 15.68ZM362.43 6.38L362.26 6.38L360.57 12.15L364.13 12.15L362.43 6.38ZM377.01 5.88L379.83 15.18L380.00 15.18L380.00 5.88L381.18 5.88L381.18 15.68L378.83 15.68L376.00 6.38L375.83 6.38L375.83 15.68L374.65 15.68L374.65 5.88L377.01 5.88ZM393.54 14.78L393.54 14.78Q394.14 14.78 394.57 14.58Q395.00 14.38 395.27 14.04Q395.54 13.69 395.67 13.25Q395.81 12.81 395.81 12.32L395.81 12.32L395.81 12.15L396.98 12.15L396.98 12.32Q396.98 13.06 396.76 13.71Q396.54 14.36 396.10 14.85Q395.67 15.33 395.02 15.60Q394.38 15.88 393.54 15.88L393.54 15.88Q391.92 15.88 391.01 14.85Q390.10 13.83 390.10 11.87L390.10 11.87L390.10 9.69Q390.10 7.78 391.01 6.73Q391.92 5.68 393.54 5.68L393.54 5.68Q394.38 5.68 395.02 5.96Q395.67 6.23 396.10 6.71Q396.54 7.20 396.76 7.85Q396.98 8.50 396.98 9.24L396.98 9.24L396.98 9.41L395.81 9.41L395.81 9.24Q395.79 8.76 395.66 8.32Q395.53 7.87 395.25 7.53Q394.98 7.18 394.56 6.98Q394.14 6.78 393.54 6.78L393.54 6.78Q392.41 6.78 391.84 7.60Q391.27 8.43 391.27 9.77L391.27 9.77L391.27 11.79Q391.27 13.23 391.84 14.01Q392.41 14.78 393.54 14.78ZM408.46 15.68L408.46 12.24L408.21 12.24L405.15 5.88L406.46 5.88L408.97 11.23L409.14 11.23L411.64 5.88L412.96 5.88L409.89 12.24L409.64 12.24L409.64 15.68L408.46 15.68Z"></path></g></svg>